<svg xmlns="http://www.w3.org/2000/svg" xmlns:xlink="http://www.w3.org/1999/xlink" version="1.1" id="Layer_1" x="0px" y="0px" width="96.438px" height="36.834px" viewBox="-0.452 -0.416 96.438 36.834" enable-background="new -0.452 -0.416 96.438 36.834" xml:space="preserve">
<g>
	<path fill="#FF6600" d="M49.676 26.983c-0.205 0-0.457 0.066-0.596 0.152c-1.513 1.007-2.686 0.832-3.447-0.471 c-0.522-0.896-0.782-2.658-0.782-4.726s0.26-3.871 0.782-4.766c0.763-1.305 1.936-1.471 3.447-0.471 c0.139 0.1 0.4 0.2 0.6 0.153c0.689 0 1.252-0.563 1.252-1.26c0-0.556-0.542-1.007-0.866-1.192 c-0.749-0.418-2.107-0.947-3.154-0.842c-1.233 0.119-2.068 0.536-3.017 1.65c-0.948 1.113-1.531 3.652-1.531 6.719v0.008v0.006 c0 3.1 0.6 5.6 1.5 6.682c0.947 1.1 1.8 1.5 3 1.656c1.047 0.1 2.405-0.433 3.154-0.85 c0.324-0.178 0.866-0.629 0.866-1.191C50.928 27.5 50.4 27 49.7 26.983z"/>
	<path fill="#FF6600" d="M23.421 29.043V14.81c0-0.696 0.562-1.26 1.259-1.26c0.695 0 1.3 0.6 1.3 1.26v0.702 c0.854-1.166 2.547-2.021 4.281-1.962c0.676 0 1.2 0.6 1.2 1.293c0 0.669-0.522 1.22-1.191 1.259h-0.014l-0.073 0 c-0.071 0-0.158-0.007-0.252-0.026c-0.205-0.021-0.364-0.021-0.509-0.021c-1.187 0-2.074 0.49-2.566 1.1 c-0.574 0.702-0.865 1.49-0.865 2.35l-0.009 9.537c0 0.703-0.568 1.272-1.258 1.272C23.983 30.3 23.4 29.7 23.4 29.043z"/>
	<path fill="#FF6600" d="M54.018 10.919c-0.77 0-1.406-0.628-1.406-1.404c0-0.782 0.638-1.412 1.406-1.412 c0.773 0 1.4 0.6 1.4 1.412C55.421 10.3 54.8 10.9 54 10.919z"/>
	<path fill="#FEAA26" d="M91.903 0c-1.208 0-2.135 0.5-2.742 1.502c-0.716 1.147-1.072 2.4-1.072 3.8 c0 1.8 0.4 3.3 1.3 4.501c0.373 0.5 0.9 1.1 1.2 1.593c0.226 0.3 0.4 0.8 0.4 1.3 c0.023 1.827-1.169 15.275-1.181 15.31c-0.051 0.264-0.012 0.7 0.1 0.928c0.24 0.8 1 1.5 1.9 1.463l0 0 c0.909 0 1.697-0.613 1.938-1.461c0.07-0.24 0.109-0.664 0.06-0.928c-0.009-0.037-1.202-13.485-1.179-15.312 c0.021-0.458 0.195-1.001 0.418-1.271c0.367-0.444 0.871-1.059 1.246-1.594c0.894-1.236 1.336-2.734 1.336-4.501 c0-1.358-0.356-2.609-1.072-3.757C94.041 0.5 93.1 0 91.9 0L91.903 0z"/>
	<path fill="#FF6600" d="M5.076 15.823c-1.663 0-2.285 2.756-2.285 6.156c0 3.4 0.5 6.2 2.3 6.2 c1.829 0 2.278-2.754 2.278-6.154C7.355 18.6 7.1 15.8 5.1 15.823z M8.648 30.316c-0.338 0-0.663-0.133-0.899-0.378 C7.503 29.7 7.4 29.4 7.4 29.032L7.376 28.6c-0.782 1.179-1.896 1.717-3.308 1.725c-1.054 0.006-2.191-0.882-2.968-2.222 C0.372 26.8 0 24.8 0 21.887c0-2.838 0.377-4.924 1.121-6.196c0.78-1.338 1.749-2.02 2.358-2.113 c0.266-0.034 0.504-0.054 0.735-0.054c1.118 0 2.4 0.6 3.2 1.901v-0.596c0-0.702 0.575-1.28 1.277-1.28 c0.71 0 1.3 0.6 1.3 1.28v14.194C9.922 29.7 9.4 30.3 8.6 30.316z"/>
	<path fill="#FF6600" d="M15.441 28.924c0 0.77-0.615 1.393-1.387 1.393c-0.761 0-1.383-0.623-1.383-1.393V4.207 c0-0.769 0.622-1.392 1.383-1.392c0.771 0 1.4 0.6 1.4 1.392V28.924z"/>
	<path fill="#FF6600" d="M20.836 28.924c0 0.77-0.623 1.393-1.386 1.393c-0.77 0-1.385-0.623-1.385-1.393V4.207 c0-0.769 0.615-1.392 1.385-1.392c0.763 0 1.4 0.6 1.4 1.392V28.924z"/>
	<path fill="#FF6600" d="M55.396 28.924c0 0.77-0.617 1.393-1.386 1.393c-0.762 0-1.385-0.623-1.385-1.393V14.935 c0-0.768 0.623-1.385 1.385-1.385c0.769 0 1.4 0.6 1.4 1.385V28.924z"/>
	<path fill="#FF6600" d="M62.836 28.135c-1.828 0-2.285-2.756-2.285-6.155c0-3.4 0.238-6.156 2.285-6.156 c1.658 0 2.3 2.8 2.3 6.156C65.123 25.4 64.6 28.1 62.8 28.135z M66.793 15.69c-0.782-1.338-1.749-2.02-2.359-2.113 c-0.266-0.034-0.502-0.054-0.735-0.054c-1.117 0-2.394 0.622-3.153 1.901v-0.596c0-0.702-0.577-1.28-1.278-1.28 c-0.709 0-1.272 0.578-1.272 1.28V35.14c0 0.7 0.6 1.3 1.3 1.278c0.688 0 1.258-0.556 1.271-1.246 c0.007-0.014 0-6.348 0-6.573c0.782 1.2 1.9 1.7 3.3 1.724c1.055 0 2.194-0.881 2.963-2.221 c0.735-1.271 1.105-3.293 1.105-6.217C67.912 19 67.5 17 66.8 15.69z"/>
	<path fill="#FF6600" d="M38.409 20.667c0-2.384-0.688-4.77-2.365-4.77c-1.676 0-2.12 2.385-2.12 4.777L38.409 20.667z M40.478 22.517h-6.562c-0.054 1.2 0.2 2.9 0.5 3.856c0.191 0.6 0.7 1.7 1.9 1.717c1.16 0 1.835-0.969 1.968-1.863 c0.212-1.377 2.751-1.271 2.4 0.57c-0.423 2.188-1.928 3.525-4.36 3.525c-1.51 0-2.716-0.645-3.711-2.188 c-0.979-1.529-1.219-4.359-1.219-6.301c0-2.183 0.397-4.01 0.854-5.349c0.425-1.233 1.366-2.937 4.075-2.937 c4.009 0 4.7 4.5 4.7 8.45C40.994 22.3 40.8 22.5 40.5 22.517z"/>
	<path fill="#FF6600" d="M76.449 20.667c0-2.384-0.69-4.77-2.367-4.77c-1.676 0-2.119 2.385-2.119 4.777L76.449 20.667z M78.516 22.517h-6.561c-0.054 1.2 0.2 2.9 0.5 3.856c0.185 0.6 0.7 1.7 1.9 1.717s1.836-0.969 1.969-1.863 c0.211-1.377 2.75-1.271 2.4 0.57c-0.426 2.188-1.931 3.525-4.361 3.525c-1.504 0-2.717-0.645-3.711-2.188 c-0.979-1.529-1.219-4.359-1.219-6.301c0-2.183 0.401-4.01 0.86-5.349c0.419-1.233 1.364-2.937 4.068-2.937 c4.008 0 4.7 4.5 4.7 8.45C79.039 22.3 78.8 22.5 78.5 22.517z"/>
	<path fill="#FF6600" d="M85.818 21.292c-0.985-0.842-2.081-1.539-2.757-2.328c-0.921-1.064-0.206-2.801 0.836-2.976 c0.582-0.091 1.3 0 1.9 0.325c0.185 0.1 0.4 0.2 0.6 0.18c0.688 0 1.239-0.565 1.239-1.247 c0-0.523-0.311-0.96-0.763-1.153l-0.014-0.006c-1.788-0.709-3.922-0.974-5.52 0.722c-1.604 1.696-1.438 4.5 0.2 6.1 c0.93 0.9 2.9 2.2 3.5 3.166c1.577 2.434-0.537 4.686-2.977 3.388h-0.007c-0.19-0.134-0.431-0.206-0.682-0.206 c-0.684 0-1.238 0.559-1.238 1.248c0 0.1 0 0.2 0 0.311c0.055 0.3 0.2 0.5 0.4 0.7 c0.008 0 0.1 0.1 0.2 0.118c1.529 1 3.8 1.1 5.399-0.151C88.656 27.4 88.5 23.6 85.8 21.292z"/>
</g>
</svg>
