<svg xmlns="http://www.w3.org/2000/svg" xmlns:xlink="http://www.w3.org/1999/xlink" version="1.1" x="0px" y="0px" viewBox="0 0 100 125"><path d="M360,400 l500,0 c40,0,40,0,40,60 l0,440 l-600,0 l0,-440 c0,-60,0,-60,60,-60 Z M327,550 c126,0,228,102,228,227 c0,126,-102,228,-228,228 c-125,0,-227,-102,-227,-228 c0,-125,102,-227,227,-227 Z M600,777 c125,0,227,102,227,228 c0,125,-102,227,-227,227 c-125,0,-227,-102,-227,-227 c0,-126,102,-228,227,-228 Z M873,550 c125,0,227,102,227,227 c0,126,-102,228,-227,228 c-126,0,-228,-102,-228,-228 c0,-125,102,-227,228,-227 Z M578,173 c0,-82,99,-204,276,-204 c188,0,246,162,246,238 c0,14,-33,21,-42,10 c-20,-51,-44,-70,-71,-70 c-140,0,-96,167,-263,167 c-97,0,-146,-76,-146,-141 Z M622,173 c0,65,-49,141,-146,141 c-167,0,-123,-167,-263,-167 c-27,0,-51,19,-70,70 c-10,11,-43,4,-43,-10 c0,-76,58,-238,246,-238 c177,0,276,122,276,204 Z M622,173 " fill="#000000" stroke="none" stroke-dasharray="none" stroke-linecap="inherit" stroke-linejoin="inherit" stroke-width="1" transform="matrix(0.05,0.0,0.0,-0.05,20.0,80.0)"/><text x="0" y="115" fill="#000000" font-size="5px" font-weight="bold" font-family="'Helvetica Neue', Helvetica, Arial-Unicode, Arial, Sans-serif">Created by Thomas Helbig</text><text x="0" y="120" fill="#000000" font-size="5px" font-weight="bold" font-family="'Helvetica Neue', Helvetica, Arial-Unicode, Arial, Sans-serif">from the Noun Project</text></svg>