<svg xmlns="http://www.w3.org/2000/svg" xmlns:xlink="http://www.w3.org/1999/xlink" version="1.1" x="0px" y="0px" viewBox="0 0 500 625" style="enable-background:new 0 0 500 500;" xml:space="preserve"><g><path d="M486.5,158.9c-6-15.3-26.6-50.8-89.3-50.8c-0.1,0-0.2,0-0.3,0c-34.6,1-127.8,3-142.8,0.1c-7.3-1.4-27.5-8.8-46.9-16   c-38-14-63.7-23.2-74.5-23.2c-3.4,0-9.4-0.1-16.9-0.1c-86.7-0.9-93.4,0.4-97.1,2.7c-7,4.2-9,15.9-9.1,22.1   c-0.2,9.3,3,16.6,8.9,20.4c3.7,2.4,8.3,4.2,12.8,5.9c5.8,2.3,13.9,5.3,14.2,8.5l29.7,278.4c0.1,1.3,0.6,2.4,1.3,3.5   c1.4,2,36.1,48.3,128.6,48.3c0.6,0,1.3,0,1.9,0c93.5-0.6,132.2-45,133.8-46.9c0.8-1,1.4-2.2,1.6-3.5c0.1-0.6,9.1-56.1,21-112.7   c7-33.2,13.5-60.2,19.5-80.3c9.8-33.1,15.5-38.5,16.5-39.3c6.9-1.9,12.5-1.5,16.6,1.4c4.8,3.4,8,10.6,8.5,19.2   c0.4,7.2,3.3,41.6,7.3,75.4c7.8,67.1,12.2,71,15,73.6c1.7,1.5,3.8,2.3,6,2.1c9.8-0.6,30.5-12.3,31.5-24.3l0.1-0.7   C487.8,280.7,495,180.9,486.5,158.9z M469.9,321.3l0,0.5c-1,2.7-8.5,8.1-14.2,10.3c-1.8-6-5.2-22-10.1-64.9   c-3.7-31.9-6.4-64.1-6.8-71.6c-0.7-13.1-6-24.1-14.5-30.2c-5.4-3.9-14.9-7.6-29.2-3.4C385,165,372.6,182.4,350,289.2   c-11,51.8-19.7,103.5-21.5,114.5c-7,7.1-43.7,39.9-121.6,40.4c-0.6,0-1.2,0-1.8,0c-44,0-73.4-11.4-90.3-21   c-14.7-8.3-22.8-16.8-25.6-20L88,391.6h97.8c4,0,7.2-3.2,7.2-7.2c0-4-3.2-7.2-7.2-7.2H86.5l-1.9-17.5h45.6c4,0,7.2-3.2,7.2-7.2   c0-4-3.2-7.2-7.2-7.2H83.1l-1.9-17.5h104.7c4,0,7.2-3.2,7.2-7.2c0-4-3.2-7.2-7.2-7.2H79.7l-2.1-19.8h52.7c4,0,7.2-3.2,7.2-7.2   c0-4-3.2-7.2-7.2-7.2H76l-2.1-19.8h112c4,0,7.2-3.2,7.2-7.2c0-4-3.2-7.2-7.2-7.2H72.4l-2.6-24.8h60.5c4,0,7.2-3.2,7.2-7.2   c0-4-3.2-7.2-7.2-7.2H68.2l-3-28.4h120.7c4,0,7.2-3.2,7.2-7.2c0-4-3.2-7.2-7.2-7.2H63.6l-3.8-36c-1.3-11.9-13.5-16.6-23.3-20.4   c-3.9-1.5-7.7-3-10.1-4.5c-1-0.7-1.9-2.6-2.2-5.1c-0.7-5.3,0.9-10.7,2-12.8c10.8-1.7,67.6-1.1,89.5-0.9c7.6,0.1,13.6,0.1,17,0.1   c9.1,0,44,12.9,69.5,22.4c21.8,8.1,40.7,15.1,49.2,16.7c19.1,3.6,132.4,0.5,145.8,0.1c18,0,61.2,4.1,75.8,41.6   C478,177,476.8,238.7,469.9,321.3z"/><path d="M341.4,140.7c-35.7,0.7-76.2,0.9-81,0.1c-0.6-0.1-1.3-0.1-2-0.1c0,0,0,0,0,0c-8.8,0-71.2-22.2-126.7-43.7   c-0.8-0.3-1.7-0.5-2.6-0.5H91.1c-4,0-7.2,3.2-7.2,7.2c0,4,3.2,7.2,7.2,7.2h36.5c6,2.3,32.2,12.4,59.2,22.2   c57.7,20.9,68.3,22.2,72,22c4.3,0.5,14.8,0.6,27,0.6c21.4,0,48.1-0.5,55.7-0.6c4-0.1,7.1-3.4,7.1-7.3   C348.6,143.8,345.3,140.6,341.4,140.7z"/></g><text x="0" y="515" fill="#000000" font-size="5px" font-weight="bold" font-family="'Helvetica Neue', Helvetica, Arial-Unicode, Arial, Sans-serif">Created by alex tarrant</text><text x="0" y="520" fill="#000000" font-size="5px" font-weight="bold" font-family="'Helvetica Neue', Helvetica, Arial-Unicode, Arial, Sans-serif">from the Noun Project</text></svg>