<svg xmlns="http://www.w3.org/2000/svg" xmlns:xlink="http://www.w3.org/1999/xlink" version="1.1" x="0px" y="0px" viewBox="0 0 100 100" enable-background="new 0 0 100 100" xml:space="preserve"><path d="M99.812,80.355c-0.983-6.139-4.927-8.227-8.186-8.878c-0.979-5.216-7.071-37.641-9.367-47.825  c6.41-0.133,11.586-5.379,11.586-11.82C93.846,5.308,88.539,0,82.014,0S70.182,5.308,70.182,11.833c0,0.759,0.079,1.499,0.216,2.218  c-0.085,0.067-0.145,0.117-0.145,0.117l-36.5,30.854c-0.412-0.066-0.854-0.114-1.36-0.114c-4.485,0-11.49,2.915-18.282,7.607  c-4.64,3.205-8.602,6.834-11.154,10.219c-3.696,4.903-3.26,7.685-2.243,9.154c0.432,0.626,1.217,1.329,2.584,1.691  c2.934,3.447,14.111,14.592,28.789,4.455c13.411-9.265,8.878-21.895,6.256-26.976c4.073-2.977,18.107-13.247,28.632-21.113  L58.341,66.71c-3.655,1.162-7.298,7.521-9.449,13.846c-2.304,6.767-2.828,13.096-1.334,16.127c0.62,1.26,1.482,1.772,2.096,1.98  c0.332,0.113,0.682,0.169,1.041,0.169c0.603,0,1.21-0.175,1.815-0.468c3.824,0.788,14.844,1.888,19.003-10.338  c3.374-9.923-2.242-15.461-6.374-18.061l0.101,0.03c0,0,5.487-17.608,9.833-32.026l8.91,34.011c-1.287,2.08-1.638,6.396-0.867,11.2  c0.894,5.57,3.182,11.19,6.281,11.19c0.065,0,0.325-0.021,0.389-0.03c0.491-0.079,1.206-0.353,1.828-1.21  c0.048-0.065,0.085-0.158,0.131-0.229C94.583,92.004,101.192,88.971,99.812,80.355z M50.568,95.974  c-0.148-0.05-0.317-0.248-0.462-0.545c-0.964-1.955-0.766-7.377,1.475-13.958c2.65-7.79,6.353-12.106,8.039-12.106  c0.004,0,0.008,0,0.012,0c0.289,0.097,1.035,1.025,1.01,4.103c-0.022,2.932-0.742,6.624-2.026,10.399  c-2.654,7.809-6.368,12.127-7.919,12.127L50.568,95.974z M72.21,11.833c0-5.406,4.397-9.804,9.804-9.804s9.804,4.398,9.804,9.804  c0,5.406-4.397,9.804-9.804,9.804c-0.083,0-0.158-0.023-0.241-0.025c-0.092-0.348-0.173-0.641-0.232-0.81  c-0.374-1.06-0.628-1.693-0.897-2.068c1.262-1.976,0.977-3.803-1.483-6.262c-1.965-1.965-4.898-0.855-6.855,0.281  C72.273,12.445,72.21,12.147,72.21,11.833z M75.445,19.059c-0.945-0.86-1.718-1.892-2.271-3.061c0.911-0.194,1.971-0.033,2.401,0.38  C76.085,16.795,75.938,18.098,75.445,19.059z M71.41,17.051c0.624,1.261,1.46,2.394,2.47,3.353  c-1.073,0.504-2.327,0.781-3.456-0.218C69.849,19.221,70.544,17.924,71.41,17.051z M5.387,64.566  c2.361-3.132,6.074-6.523,10.454-9.548c6.214-4.294,12.711-7.068,16.552-7.068c1.05,0,1.809,0.228,2.083,0.624  c1.222,1.771-3.09,8.552-12.629,15.143c-6.211,4.292-12.707,7.065-16.55,7.065c-1.048,0-1.806-0.226-2.08-0.624  C2.729,69.453,3.211,67.45,5.387,64.566z M89.643,91.702c-0.133,0.183-0.227,0.232-0.242,0.234l-0.004,1.218v-1.218  c-0.721,0-2.912-3.11-3.877-9.14c-0.713-4.443-0.334-7.938,0.429-9.362l0.933-0.196c0.953,0.913,2.558,3.859,3.35,8.804  C90.995,86.796,90.512,90.5,89.643,91.702z"></path></svg>