<svg xmlns="http://www.w3.org/2000/svg" xmlns:xlink="http://www.w3.org/1999/xlink" version="1.1" x="0px" y="0px" viewBox="0 0 100 125" enable-background="new 0 0 100 100" xml:space="preserve"><g><path d="M46.178,90.885c0.443,0.774,1.064,1.227,1.719,1.523c0.661,0.293,1.38,0.426,2.101,0.427   c0.719-0.001,1.438-0.134,2.099-0.427c0.655-0.296,1.277-0.75,1.719-1.524c0.817-1.505,1.19-3.721,1.472-6.572   c0.267-2.841,0.369-6.282,0.369-9.991c-0.001-14.207-1.524-32.366-1.653-33.872c1.709-0.02,3.243-0.847,4.325-2.121   c1.1-1.293,1.763-3.052,1.764-4.967c0-0.003,0.051-3.04,0.051-5.606c0-0.69-0.003-1.347-0.014-1.903   c-0.065-3.976-0.842-15.574-0.875-16.079c-0.006-0.643-0.177-1.268-0.57-1.77c-0.393-0.514-1.052-0.848-1.777-0.838   c-0.727-0.01-1.384,0.331-1.768,0.843c-0.39,0.51-0.554,1.133-0.579,1.77c-0.118,3.266-0.579,11.915-0.792,14.943h-0.053   c-0.297-3.059-1.252-11.711-1.369-14.943c-0.024-0.636-0.19-1.26-0.579-1.77c-0.383-0.512-1.041-0.854-1.766-0.843   c-0.727-0.01-1.384,0.331-1.768,0.843c-0.391,0.51-0.554,1.133-0.58,1.77c-0.117,3.233-1.072,11.885-1.368,14.943h-0.055   c-0.213-3.029-0.672-11.677-0.792-14.943c-0.025-0.636-0.189-1.26-0.578-1.77c-0.384-0.512-1.041-0.854-1.768-0.843   c-0.726-0.009-1.385,0.324-1.778,0.838c-0.393,0.502-0.563,1.129-0.569,1.772c-0.034,0.52-0.786,12.108-0.871,16.075l0.439,0.009   v0.001l-0.439-0.01c-0.02,0.901-0.025,2.068-0.025,3.214c0,2.184,0.022,4.291,0.022,4.284c0,1.928,0.663,3.687,1.764,4.98   c1.087,1.282,2.633,2.111,4.353,2.123c-0.128,1.511-1.651,19.666-1.652,33.87c0.001,3.709,0.104,7.151,0.369,9.991   C44.988,87.163,45.362,89.378,46.178,90.885"/></g><text x="0" y="115" fill="#000000" font-size="5px" font-weight="bold" font-family="'Helvetica Neue', Helvetica, Arial-Unicode, Arial, Sans-serif">Created by Jacqueline Fernandes</text><text x="0" y="120" fill="#000000" font-size="5px" font-weight="bold" font-family="'Helvetica Neue', Helvetica, Arial-Unicode, Arial, Sans-serif">from the Noun Project</text></svg>