<svg xmlns="http://www.w3.org/2000/svg" xmlns:xlink="http://www.w3.org/1999/xlink" version="1.1" x="0px" y="0px" viewBox="0 0 100 125"><path d="M313,325 c92,0,79,234,39,340 c-20,54,96,38,75,235 l-16,145 c-2,15,-11,23,-21,23 c-9,0,-18,-8,-18,-23 l0,-184 c0,-30,-39,-30,-39,0 l0,184 c-1,15,-10,23,-20,23 c-10,0,-20,-8,-20,-23 l0,-184 c0,-30,-39,-30,-39,0 l0,184 c1,15,-8,23,-18,23 c-9,0,-19,-8,-21,-23 l-15,-145 c-22,-197,94,-181,74,-235 c-44,-114,-53,-340,39,-340 Z M639,325 c83,0,62,183,62,289 l1,422 c0,26,-13,39,-32,39 c-47,0,-127,-78,-127,-242 l0,-172 c0,-59,81,-22,81,-53 c-66,-97,-69,-283,15,-283 Z M1100,0 l-850,0 c-125,0,-250,50,-250,200 l0,850 c0,150,0,150,150,150 l750,0 l0,-1000 l-800,0 c0,-75,50,-100,100,-100 l800,0 l0,1000 l100,-100 Z M1100,0 " fill="#000000" stroke="none" stroke-dasharray="none" stroke-linecap="inherit" stroke-linejoin="inherit" stroke-width="1" transform="matrix(0.0833333333333,0.0,0.0,-0.0833333333333,0.0,100.0)"/><text x="0" y="115" fill="#000000" font-size="5px" font-weight="bold" font-family="'Helvetica Neue', Helvetica, Arial-Unicode, Arial, Sans-serif">Created by Thomas Helbig</text><text x="0" y="120" fill="#000000" font-size="5px" font-weight="bold" font-family="'Helvetica Neue', Helvetica, Arial-Unicode, Arial, Sans-serif">from the Noun Project</text></svg>