<svg xmlns="http://www.w3.org/2000/svg" xmlns:xlink="http://www.w3.org/1999/xlink" version="1.1" x="0px" y="0px" viewBox="0 0 100 125" enable-background="new 0 0 100 100" xml:space="preserve"><path d="M87.268,25.157l-8.712-8.712c-0.976-0.977-2.56-0.977-3.535,0l-5.371,5.371H21.5c-1.381,0-2.5,1.119-2.5,2.5v57.472  c0,1.381,1.119,2.5,2.5,2.5h50c1.381,0,2.5-1.119,2.5-2.5V41.96l13.268-13.268C88.244,27.715,88.244,26.133,87.268,25.157z   M81.964,26.924l-1.284,1.284l-5.177-5.176l1.284-1.284L81.964,26.924z M50.656,53.871l-0.815-0.815l1.8-5.052l4.067,4.067  L50.656,53.871z M59.798,49.091l-5.177-5.177l17.348-17.347l5.177,5.176L59.798,49.091z M69,79.288H24V26.816h40.649l-8.26,8.26  c-0.133-0.022-0.267-0.041-0.406-0.041H30.121c-1.381,0-2.5,1.119-2.5,2.5s1.119,2.5,2.5,2.5h21.31l-3.108,3.108  c-0.262,0.262-0.463,0.579-0.587,0.929l-0.466,1.308H30.121c-1.381,0-2.5,1.119-2.5,2.5s1.119,2.5,2.5,2.5h15.367l-1.913,5.368  c-0.079-0.008-0.155-0.024-0.236-0.024H30.121c-1.381,0-2.5,1.119-2.5,2.5s1.119,2.5,2.5,2.5h13.218c0.247,0,0.48-0.047,0.705-0.113  c0.376,0.212,0.795,0.333,1.225,0.333c0.281,0,0.564-0.048,0.838-0.145l13.533-4.82c0.349-0.125,0.667-0.325,0.929-0.588L69,46.96  V79.288z"/><text x="0" y="115" fill="#000000" font-size="5px" font-weight="bold" font-family="'Helvetica Neue', Helvetica, Arial-Unicode, Arial, Sans-serif">Created by Verve-s</text><text x="0" y="120" fill="#000000" font-size="5px" font-weight="bold" font-family="'Helvetica Neue', Helvetica, Arial-Unicode, Arial, Sans-serif">from the Noun Project</text></svg>