<svg xmlns:dc="http://purl.org/dc/elements/1.1/" xmlns:cc="http://creativecommons.org/ns#" xmlns:rdf="http://www.w3.org/1999/02/22-rdf-syntax-ns#" xmlns:svg="http://www.w3.org/2000/svg" xmlns="http://www.w3.org/2000/svg" xmlns:sodipodi="http://sodipodi.sourceforge.net/DTD/sodipodi-0.dtd" xmlns:inkscape="http://www.inkscape.org/namespaces/inkscape" viewBox="0 0 32 40" version="1.1" x="0px" y="0px"><g transform="translate(0,-1020.3622)"><path style="color:#000000;font-style:normal;font-variant:normal;font-weight:normal;font-stretch:normal;font-size:medium;line-height:normal;font-family:sans-serif;text-indent:0;text-align:start;text-decoration:none;text-decoration-line:none;text-decoration-style:solid;text-decoration-color:#000000;letter-spacing:normal;word-spacing:normal;text-transform:none;direction:ltr;block-progression:tb;writing-mode:lr-tb;baseline-shift:baseline;text-anchor:start;white-space:normal;clip-rule:nonzero;display:inline;overflow:visible;visibility:visible;opacity:1;isolation:auto;mix-blend-mode:normal;color-interpolation:sRGB;color-interpolation-filters:linearRGB;solid-color:#000000;solid-opacity:1;fill:#000000;fill-opacity:1;fill-rule:evenodd;stroke:none;stroke-width:0.99999994px;stroke-linecap:round;stroke-linejoin:round;stroke-miterlimit:4;stroke-dasharray:none;stroke-dashoffset:0;stroke-opacity:1;color-rendering:auto;image-rendering:auto;shape-rendering:auto;text-rendering:auto;enable-background:accumulate" d="m 8.9902344,1044.3555 a 0.50004997,0.50004997 0 0 0 -0.4921875,0.5058 l 0,2.5 a 0.50004997,0.50004997 0 0 0 0.6582031,0.4746 l 1.341797,-0.4472 1.341797,0.4472 a 0.50004997,0.50004997 0 0 0 0.658203,-0.4746 l 0,-2.5 a 0.50004997,0.50004997 0 1 0 -1,0 l 0,1.8086 -0.841797,-0.2812 a 0.50004997,0.50004997 0 0 0 -0.316406,0 l -0.8417971,0.2812 0,-1.8086 a 0.50004997,0.50004997 0 0 0 -0.5078125,-0.5058 z"/><path style="color:#000000;font-style:normal;font-variant:normal;font-weight:normal;font-stretch:normal;font-size:medium;line-height:normal;font-family:sans-serif;text-indent:0;text-align:start;text-decoration:none;text-decoration-line:none;text-decoration-style:solid;text-decoration-color:#000000;letter-spacing:normal;word-spacing:normal;text-transform:none;direction:ltr;block-progression:tb;writing-mode:lr-tb;baseline-shift:baseline;text-anchor:start;white-space:normal;clip-rule:nonzero;display:inline;overflow:visible;visibility:visible;opacity:1;isolation:auto;mix-blend-mode:normal;color-interpolation:sRGB;color-interpolation-filters:linearRGB;solid-color:#000000;solid-opacity:1;fill:#000000;fill-opacity:1;fill-rule:evenodd;stroke:none;stroke-width:0.99999994px;stroke-linecap:butt;stroke-linejoin:miter;stroke-miterlimit:4;stroke-dasharray:none;stroke-dashoffset:0;stroke-opacity:1;color-rendering:auto;image-rendering:auto;shape-rendering:auto;text-rendering:auto;enable-background:accumulate" d="m 26.994141,1044.3613 0,5.5 1,0 0,-5.5 -1,0 z"/><path style="color:#000000;font-style:normal;font-variant:normal;font-weight:normal;font-stretch:normal;font-size:medium;line-height:normal;font-family:sans-serif;text-indent:0;text-align:start;text-decoration:none;text-decoration-line:none;text-decoration-style:solid;text-decoration-color:#000000;letter-spacing:normal;word-spacing:normal;text-transform:none;direction:ltr;block-progression:tb;writing-mode:lr-tb;baseline-shift:baseline;text-anchor:start;white-space:normal;clip-rule:nonzero;display:inline;overflow:visible;visibility:visible;opacity:1;isolation:auto;mix-blend-mode:normal;color-interpolation:sRGB;color-interpolation-filters:linearRGB;solid-color:#000000;solid-opacity:1;fill:#000000;fill-opacity:1;fill-rule:evenodd;stroke:none;stroke-width:0.99999994px;stroke-linecap:round;stroke-linejoin:round;stroke-miterlimit:4;stroke-dasharray:none;stroke-dashoffset:0;stroke-opacity:1;color-rendering:auto;image-rendering:auto;shape-rendering:auto;text-rendering:auto;enable-background:accumulate" d="m 4.5,1021.8613 a 0.50004997,0.50004997 0 0 0 -0.5,0.4785 l -1,22 a 0.50004997,0.50004997 0 0 0 0.5,0.5215 l 24.992188,0 a 0.50004997,0.50004997 0 0 0 0.5,-0.5215 l -1,-22 a 0.50004997,0.50004997 0 0 0 -0.498047,-0.4785 l -22.994141,0 z m 0.4785156,1 22.0371094,0 0.955078,21 -23.9472655,0 0.9550781,-21 z"/><path style="color:#000000;font-style:normal;font-variant:normal;font-weight:normal;font-stretch:normal;font-size:medium;line-height:normal;font-family:sans-serif;text-indent:0;text-align:start;text-decoration:none;text-decoration-line:none;text-decoration-style:solid;text-decoration-color:#000000;letter-spacing:normal;word-spacing:normal;text-transform:none;direction:ltr;block-progression:tb;writing-mode:lr-tb;baseline-shift:baseline;text-anchor:start;white-space:normal;clip-rule:nonzero;display:inline;overflow:visible;visibility:visible;opacity:1;isolation:auto;mix-blend-mode:normal;color-interpolation:sRGB;color-interpolation-filters:linearRGB;solid-color:#000000;solid-opacity:1;fill:#000000;fill-opacity:1;fill-rule:evenodd;stroke:none;stroke-width:0.99999994px;stroke-linecap:round;stroke-linejoin:round;stroke-miterlimit:4;stroke-dasharray:none;stroke-dashoffset:0;stroke-opacity:1;color-rendering:auto;image-rendering:auto;shape-rendering:auto;text-rendering:auto;enable-background:accumulate" d="M 3.4921875,1043.8555 A 0.50004997,0.50004997 0 0 0 3,1044.3613 l 0,5.5 a 0.50004997,0.50004997 0 0 0 0.5,0.5 l 24.992188,0 a 0.50004997,0.50004997 0 1 0 0,-1 l -24.492188,0 0,-5 a 0.50004997,0.50004997 0 0 0 -0.5078125,-0.5058 z"/><path style="color:#000000;font-style:normal;font-variant:normal;font-weight:normal;font-stretch:normal;font-size:medium;line-height:normal;font-family:sans-serif;text-indent:0;text-align:start;text-decoration:none;text-decoration-line:none;text-decoration-style:solid;text-decoration-color:#000000;letter-spacing:normal;word-spacing:normal;text-transform:none;direction:ltr;block-progression:tb;writing-mode:lr-tb;baseline-shift:baseline;text-anchor:start;white-space:normal;clip-rule:nonzero;display:inline;overflow:visible;visibility:visible;opacity:1;isolation:auto;mix-blend-mode:normal;color-interpolation:sRGB;color-interpolation-filters:linearRGB;solid-color:#000000;solid-opacity:1;fill:#000000;fill-opacity:1;fill-rule:evenodd;stroke:none;stroke-width:0.99999994px;stroke-linecap:butt;stroke-linejoin:miter;stroke-miterlimit:4;stroke-dasharray:none;stroke-dashoffset:0;stroke-opacity:1;color-rendering:auto;image-rendering:auto;shape-rendering:auto;text-rendering:auto;enable-background:accumulate" d="m 7,1022.3516 -0.5,22 0.9980469,0.021 0.5,-22 L 7,1022.3516 Z"/><path style="color:#000000;font-style:normal;font-variant:normal;font-weight:normal;font-stretch:normal;font-size:medium;line-height:normal;font-family:sans-serif;text-indent:0;text-align:start;text-decoration:none;text-decoration-line:none;text-decoration-style:solid;text-decoration-color:#000000;letter-spacing:normal;word-spacing:normal;text-transform:none;direction:ltr;block-progression:tb;writing-mode:lr-tb;baseline-shift:baseline;text-anchor:start;white-space:normal;clip-rule:nonzero;display:inline;overflow:visible;visibility:visible;opacity:1;isolation:auto;mix-blend-mode:normal;color-interpolation:sRGB;color-interpolation-filters:linearRGB;solid-color:#000000;solid-opacity:1;fill:#000000;fill-opacity:1;fill-rule:evenodd;stroke:none;stroke-width:1.00000012px;stroke-linecap:round;stroke-linejoin:round;stroke-miterlimit:4;stroke-dasharray:none;stroke-dashoffset:0;stroke-opacity:1;color-rendering:auto;image-rendering:auto;shape-rendering:auto;text-rendering:auto;enable-background:accumulate" d="m 16.195312,1030.5371 a 0.50005006,0.50005006 0 0 0 -0.453124,0.6289 l 0.496093,1.9844 a 0.50023124,0.50023124 0 1 0 0.970703,-0.2422 l -0.496093,-1.9863 a 0.50005006,0.50005006 0 0 0 -0.517579,-0.3848 z"/><path style="color:#000000;font-style:normal;font-variant:normal;font-weight:normal;font-stretch:normal;font-size:medium;line-height:normal;font-family:sans-serif;text-indent:0;text-align:start;text-decoration:none;text-decoration-line:none;text-decoration-style:solid;text-decoration-color:#000000;letter-spacing:normal;word-spacing:normal;text-transform:none;direction:ltr;block-progression:tb;writing-mode:lr-tb;baseline-shift:baseline;text-anchor:start;white-space:normal;clip-rule:nonzero;display:inline;overflow:visible;visibility:visible;opacity:1;isolation:auto;mix-blend-mode:normal;color-interpolation:sRGB;color-interpolation-filters:linearRGB;solid-color:#000000;solid-opacity:1;fill:#000000;fill-opacity:1;fill-rule:nonzero;stroke:none;stroke-width:0.99999994;stroke-linecap:round;stroke-linejoin:round;stroke-miterlimit:4;stroke-dasharray:none;stroke-dashoffset:0;stroke-opacity:1;color-rendering:auto;image-rendering:auto;shape-rendering:auto;text-rendering:auto;enable-background:accumulate" d="m 17.736328,1027.3633 c -0.897284,0 -1.715778,0.4263 -2.355469,1.0762 -0.562763,-0.1993 -1.171644,-0.273 -1.746093,-0 a 0.50004997,0.50004997 0 0 0 -0.002,0 c -1.474009,0.6981 -2.002695,2.6539 -1.376953,4.373 0.359422,0.9852 1.088862,1.7232 1.980469,2.0567 l 0,2.4961 a 0.50004997,0.50004997 0 0 0 0.5,0.5 l 6.001953,0 a 0.50004997,0.50004997 0 0 0 0.5,-0.5 l 0,-2.4863 c 0.884176,-0.3158 1.635159,-1.0073 1.998047,-2.002 0.625743,-1.7192 0.09705,-3.675 -1.376953,-4.373 a 0.50004997,0.50004997 0 0 0 -0.002,0 c -0.520214,-0.2454 -1.101219,-0.1324 -1.65625,0.021 -0.594399,-0.6506 -1.38128,-1.0422 -2.236328,-1.1054 a 0.50004997,0.50004997 0 0 0 -0.0039,-0 0.50004997,0.50004997 0 0 0 -0.222657,-0.053 0.50004997,0.50004997 0 0 0 -0.002,0 z m 0.002,1 c 0.703968,0 1.380473,0.3301 1.861328,0.9297 a 0.50004997,0.50004997 0 0 0 0.603516,0.1386 c 0.427398,-0.203 0.845998,-0.2042 1.226563,-0.025 0.868594,0.4114 1.345094,1.814 0.867187,3.127 -0.322231,0.8832 -0.985746,1.4638 -1.636719,1.5684 a 0.50004997,0.50004997 0 0 0 -0.421875,0.4941 l 0,2.2676 -5.001953,0 0,-2.2676 a 0.50004997,0.50004997 0 0 0 -0.419922,-0.4941 c -0.62599,-0.1006 -1.294943,-0.7408 -1.621094,-1.6348 -0.477907,-1.313 -0.0014,-2.7137 0.867188,-3.125 0.353543,-0.1661 0.7508,-0.1293 1.210938,0.09 a 0.50004997,0.50004997 0 0 0 0.605468,-0.1386 c 0.480316,-0.5993 1.154912,-0.9283 1.859375,-0.9297 z"/><path style="color:#000000;font-style:normal;font-variant:normal;font-weight:normal;font-stretch:normal;font-size:medium;line-height:normal;font-family:sans-serif;text-indent:0;text-align:start;text-decoration:none;text-decoration-line:none;text-decoration-style:solid;text-decoration-color:#000000;letter-spacing:normal;word-spacing:normal;text-transform:none;direction:ltr;block-progression:tb;writing-mode:lr-tb;baseline-shift:baseline;text-anchor:start;white-space:normal;clip-rule:nonzero;display:inline;overflow:visible;visibility:visible;opacity:1;isolation:auto;mix-blend-mode:normal;color-interpolation:sRGB;color-interpolation-filters:linearRGB;solid-color:#000000;solid-opacity:1;fill:#000000;fill-opacity:1;fill-rule:evenodd;stroke:none;stroke-width:1.00000012px;stroke-linecap:round;stroke-linejoin:round;stroke-miterlimit:4;stroke-dasharray:none;stroke-dashoffset:0;stroke-opacity:1;color-rendering:auto;image-rendering:auto;shape-rendering:auto;text-rendering:auto;enable-background:accumulate" d="m 19.1875,1030.5449 a 0.50005006,0.50005006 0 0 0 -0.451172,0.3848 l -0.496094,1.9863 a 0.50023172,0.50023172 0 1 0 0.970704,0.2422 l 0.496093,-1.9863 a 0.50005006,0.50005006 0 0 0 -0.519531,-0.627 z"/></g><text x="0" y="47" fill="#000000" font-size="5px" font-weight="bold" font-family="'Helvetica Neue', Helvetica, Arial-Unicode, Arial, Sans-serif">Created by anbileru adaleru</text><text x="0" y="52" fill="#000000" font-size="5px" font-weight="bold" font-family="'Helvetica Neue', Helvetica, Arial-Unicode, Arial, Sans-serif">from the Noun Project</text></svg>