<svg xmlns="http://www.w3.org/2000/svg" xmlns:xlink="http://www.w3.org/1999/xlink" version="1.1" x="0px" y="0px" viewBox="0 0 100 125" enable-background="new 0 0 100 100" xml:space="preserve"><path fill="#000000" d="M83.75,45.312h-0.002h-0.002h-2.809V42.5c0-6.834-8.648-12.188-19.688-12.188h-2.908  c-0.436-2.137-2.327-3.75-4.592-3.75h-7.5c-2.265,0-4.156,1.613-4.592,3.75H38.75c-11.04,0-19.688,5.354-19.688,12.188v2.812H16.25  c-1.551,0-2.812,1.262-2.812,2.812s1.262,2.812,2.812,2.812h2.812v15.938c0,0.008,0.004,0.011,0.004,0.019  c0.001,1.747,0.683,3.388,1.917,4.623c1.239,1.237,2.888,1.921,4.642,1.921h48.75c3.618,0,6.562-2.944,6.562-6.562V50.938h2.809  h0.002h0.002c1.551,0,2.812-1.262,2.812-2.812S85.301,45.312,83.75,45.312z M46.25,28.438h7.5c1.221,0,2.252,0.785,2.641,1.875  H43.609C43.998,29.223,45.029,28.438,46.25,28.438z M38.75,32.188h22.5c9.274,0,16.908,4.127,17.73,9.375H21.02  C21.842,36.314,29.476,32.188,38.75,32.188z M16.25,49.062c-0.517,0-0.938-0.421-0.938-0.938s0.421-0.938,0.938-0.938h2.812v1.875  H16.25z M74.375,71.562h-48.75c-1.252,0-2.43-0.487-3.316-1.371c-0.884-0.885-1.37-2.062-1.37-3.316c0-0.004-0.002-0.006-0.002-0.01  V43.438h58.125v2.794c0,0.008-0.004,0.011-0.004,0.019s0.004,0.011,0.004,0.019v3.713c0,0.008-0.004,0.011-0.004,0.019  s0.004,0.011,0.004,0.019v16.856C79.062,69.461,76.96,71.562,74.375,71.562z M83.75,49.062h-0.002h-0.002h-2.809v-1.875h2.809h0.002  h0.002c0.517,0,0.938,0.421,0.938,0.938S84.267,49.062,83.75,49.062z"/><ellipse fill="#000000" cx="40.625" cy="52.812" rx="1.875" ry="2.812"/><ellipse fill="#000000" cx="59.375" cy="52.812" rx="1.875" ry="2.812"/><path fill="#000000" d="M59.375,57.5h-18.75c-0.586,0-1.137,0.274-1.492,0.74c-0.354,0.467-0.471,1.072-0.313,1.637  c0.079,0.285,2.049,6.998,11.181,6.998c9.133,0,11.102-6.713,11.182-6.998c0.156-0.564,0.041-1.17-0.315-1.637  C60.514,57.774,59.961,57.5,59.375,57.5z"/><text x="0" y="115" fill="#000000" font-size="5px" font-weight="bold" font-family="'Helvetica Neue', Helvetica, Arial-Unicode, Arial, Sans-serif">Created by Julien Deveaux</text><text x="0" y="120" fill="#000000" font-size="5px" font-weight="bold" font-family="'Helvetica Neue', Helvetica, Arial-Unicode, Arial, Sans-serif">from the Noun Project</text></svg>