<svg xmlns="http://www.w3.org/2000/svg" xmlns:xlink="http://www.w3.org/1999/xlink" version="1.1" x="0px" y="0px" viewBox="0 0 100 125" enable-background="new 0 0 100 100" xml:space="preserve"><g><path d="M81.171,18.979c-4.597-4.597-9.763-6.927-15.354-6.927c-7.324,0-15.135,4.096-23.212,12.174   c-8.182,8.181-19.741,24.07-5.244,38.567c3.313,3.314,6.926,5.443,10.781,6.378c0.279-0.271,0.556-0.522,0.839-0.807   c2.627-2.628,4.657-5.112,6.12-7.445c-0.812,0.156-1.609,0.246-2.386,0.246c-3.288,0-6.333-1.446-9.307-4.423   c-4.556-4.555-8.969-12.255,5.244-26.469c6.416-6.414,12.189-9.667,17.166-9.667c3.285,0,6.33,1.446,9.307,4.422   c4.339,4.339,8.536,11.537-3.359,24.494c0.504,2.996,0.389,6.101-0.363,9.27c-0.303,1.281-0.721,2.573-1.238,3.873   c1.904-1.479,3.826-3.181,5.764-5.117c6.299-6.299,10.194-12.453,11.583-18.297C89.256,31.884,87.064,24.874,81.171,18.979z"/></g><g><path d="M51.498,31.48c-0.277,0.266-0.553,0.531-0.83,0.811c-2.795,2.795-4.803,5.262-6.193,7.459   c0.839-0.168,1.66-0.261,2.459-0.261c3.287,0,6.332,1.446,9.308,4.421c3.843,3.843,5.133,7.732,4.062,12.248   c-1.018,4.277-4.147,9.062-9.309,14.223c-6.414,6.414-12.188,9.667-17.161,9.667c-3.288,0-6.333-1.446-9.309-4.422   c-3.842-3.844-5.133-7.733-4.061-12.247c0.888-3.738,3.393-7.867,7.456-12.294c-0.678-4.235-0.101-8.679,1.719-13.218   c-1.955,1.505-3.928,3.25-5.918,5.24c-6.297,6.298-10.193,12.454-11.581,18.295c-1.748,7.367,0.442,14.377,6.336,20.271   c4.597,4.598,9.764,6.93,15.357,6.93c7.324,0,15.134-4.097,23.211-12.174c6.297-6.298,10.193-12.451,11.58-18.296   c1.75-7.368-0.441-14.378-6.336-20.272C58.973,34.543,55.355,32.413,51.498,31.48z"/></g><text x="0" y="115" fill="#000000" font-size="5px" font-weight="bold" font-family="'Helvetica Neue', Helvetica, Arial-Unicode, Arial, Sans-serif">Created by Bruno</text><text x="0" y="120" fill="#000000" font-size="5px" font-weight="bold" font-family="'Helvetica Neue', Helvetica, Arial-Unicode, Arial, Sans-serif">from the Noun Project</text></svg>