<svg xmlns="http://www.w3.org/2000/svg" xmlns:xlink="http://www.w3.org/1999/xlink" version="1.1" x="0px" y="0px" viewBox="0 0 54.21 65.3" enable-background="new 0 0 54.21 52.24" xml:space="preserve"><g><path d="M53.51,28.24c0.01-0.01,0.01-0.02,0.02-0.03l0.68-0.07L54,26.19v-1.95c0-0.6-0.18-1.08-0.53-1.43   c-0.59-0.59-1.42-0.59-2.21-0.58l-24.01,0L6.45,0.95C5.37-0.14,3.62-0.33,2.58,0.56L2.33,0.68L2.2,0.81C1.1,1.91,1.1,4.15,2.2,5.24   l16.6,17l-15.8,0H2.74c-0.8,0-1.62-0.02-2.21,0.57C0.18,23.17,0,23.65,0,24.24v2c0,0.03,0.01,0.07,0.01,0.1l0,0l0.02,0.22   c0.01,0.12,0.02,0.23,0.04,0.35l0.15,1.4c0.04,12.97,12.14,23.93,27,23.93c14.89,0,27-11,27-24H53.51z M51.27,24.24   c0.22,0,0.54-0.01,0.73,0.02v1.98c0,0.82-0.68,1.96-1,2h-7v-4h7H51.27z M35.5,26.2c-1.93,0-3.5,1.56-3.5,3.48v2.48   c0,0.82-0.67,1.48-1.5,1.48S29,32.97,29,32.16v-7.92h0.2l0,0l12.8,0v13.7c0,0.82-0.67,1.48-1.5,1.48S39,38.76,39,37.94v-8.26   C39,27.76,37.43,26.2,35.5,26.2z M3.62,3.84C3.32,3.54,3.3,2.71,3.54,2.32l0.19-0.09l0.12-0.12c0.06-0.06,0.16-0.13,0.35-0.13   c0.27,0,0.59,0.15,0.82,0.38l19.43,19.89h-2.86L3.62,3.84z M2.73,24.24l18.02,0l0,0H27v4H3c-0.28-0.04-0.8-0.87-0.96-1.62L2,26.19   v-1.93C2.19,24.24,2.5,24.24,2.73,24.24z M27.21,50.24c-13.06,0-23.81-8.98-24.9-20.13c0.22,0.08,0.45,0.13,0.69,0.13h24v1.92   c0,1.92,1.57,3.48,3.5,3.48s3.5-1.56,3.5-3.48v-2.48c0-0.82,0.67-1.48,1.5-1.48s1.5,0.66,1.5,1.48v8.26c0,1.92,1.57,3.48,3.5,3.48   s3.5-1.56,3.5-3.48v-7.7h7c0.41,0,0.79-0.14,1.13-0.35C51.16,41.14,40.36,50.24,27.21,50.24z"/><path d="M26.37,46.47c-5.45-0.56-10.43-2.71-14.02-6.05c-0.4-0.37-1.04-0.35-1.41,0.05c-0.38,0.4-0.35,1.04,0.05,1.41   c3.92,3.64,9.31,5.97,15.18,6.58c0.03,0,0.07,0,0.1,0c0.51,0,0.94-0.38,0.99-0.9C27.32,47.02,26.92,46.53,26.37,46.47z"/><path d="M8.16,36.22c-0.33-0.44-0.96-0.53-1.4-0.2c-0.44,0.33-0.53,0.96-0.2,1.4c0.35,0.47,0.75,0.91,1.19,1.3   c0.19,0.17,0.43,0.26,0.67,0.26c0.27,0,0.55-0.11,0.74-0.33c0.37-0.41,0.34-1.04-0.07-1.41C8.75,36.93,8.44,36.58,8.16,36.22z"/></g><text x="0" y="67.24000000000001" fill="#000000" font-size="5px" font-weight="bold" font-family="'Helvetica Neue', Helvetica, Arial-Unicode, Arial, Sans-serif">Created by Oliviu Stoian</text><text x="0" y="72.24000000000001" fill="#000000" font-size="5px" font-weight="bold" font-family="'Helvetica Neue', Helvetica, Arial-Unicode, Arial, Sans-serif">from the Noun Project</text></svg>