<svg xmlns:dc="http://purl.org/dc/elements/1.1/" xmlns:cc="http://creativecommons.org/ns#" xmlns:rdf="http://www.w3.org/1999/02/22-rdf-syntax-ns#" xmlns:svg="http://www.w3.org/2000/svg" xmlns="http://www.w3.org/2000/svg" xmlns:sodipodi="http://sodipodi.sourceforge.net/DTD/sodipodi-0.dtd" xmlns:inkscape="http://www.inkscape.org/namespaces/inkscape" version="1.1" x="0px" y="0px" viewBox="0 0 64 80"><g transform="translate(0,-988.36218)"><path style="" d="m 37,1043.3622 -22,0 c -3.324,0 -5.6692496,-2.6925 -6,-6 l 0,-20 46,0 0,20 c 0,3.324 -2.676,6 -6,6 l -4,0" fill="none" stroke="#000000" stroke-width="2" stroke-linecap="round" stroke-miterlimit="4" stroke-dasharray="none"/><path style="" d="m 55,1017.3622 6,0 c 1.108,0 2,0.892 2,2 0,1.108 -0.892,2 -2,2 l -6,0" fill="none" stroke="#000000" stroke-width="2" stroke-miterlimit="4"/><path style="" d="m 9,1021.3622 -6,0 c -1.108,0 -2,-0.892 -2,-2 0,-1.108 0.892,-2 2,-2 l 6,0" fill="none" stroke="#000000" stroke-width="2" stroke-miterlimit="4"/><path style="" d="M 48.78125 11.71875 C 44.513436 11.76075 37.543576 12.913938 29.875 14.96875 C 17.60528 18.25645 8.1469828 22.64745 8.71875 24.78125 L 53.125 12.875 C 52.910587 12.074788 51.341938 11.69355 48.78125 11.71875 z " transform="translate(0,988.36218)" fill="none" stroke="#000000" stroke-width="2" stroke-linecap="round" stroke-linejoin="round" stroke-miterlimit="4" stroke-opacity="1" stroke-dashoffset="0"/><path style="" d="M 28 9 C 26.343146 9 25 10.343146 25 12 C 25 13.656854 26.343146 15 28 15 C 29.656854 15 31 13.656854 31 12 C 31 10.343146 29.656854 9 28 9 z " transform="translate(0,988.36218)" fill="none" stroke="#000000" stroke-width="2" stroke-linecap="round" stroke-linejoin="round" stroke-miterlimit="4" stroke-opacity="1" stroke-dasharray="none" stroke-dashoffset="0"/><path style="" d="m 39.932595,54.924412 a 0.94701803,0.99436891 0 1 1 -1.894036,0 0.94701803,0.99436891 0 1 1 1.894036,0 z" transform="matrix(1.0559461,0,0,1.005663,-0.1666676,988.12673)" fill="#000000" stroke="none"/></g><text x="0" y="79" fill="#000000" font-size="5px" font-weight="bold" font-family="'Helvetica Neue', Helvetica, Arial-Unicode, Arial, Sans-serif">Created by Stan Fisher</text><text x="0" y="84" fill="#000000" font-size="5px" font-weight="bold" font-family="'Helvetica Neue', Helvetica, Arial-Unicode, Arial, Sans-serif">from the Noun Project</text></svg>