<svg xmlns="http://www.w3.org/2000/svg" xmlns:xlink="http://www.w3.org/1999/xlink" version="1.1" x="0px" y="0px" viewBox="0 0 100 125" enable-background="new 0 0 100 100" xml:space="preserve"><path fill="#000000" d="M6.54,49.165v5.839h8.818v20.611c0,5.691,4.613,10.306,10.304,10.306h49.01  c5.691,0,10.306-4.614,10.306-10.306V55.004h8.817v-5.839H6.54z M26.024,78.081c0,3.351-5.195,3.351-5.195,0V56.052  c0-3.351,5.195-3.351,5.195,0V78.081z"/><path fill="#000000" d="M34.029,29.146l51.998,22.592c0.731-4.539-1.649-9.171-6.059-11.087l-9.081-3.948  c-0.116-2.916-3.084-6.317-7.534-8.33c0.864-0.577,1.582-1.399,2.028-2.426c1.235-2.843-0.068-6.146-2.908-7.382  c-2.842-1.233-6.148,0.068-7.381,2.91c-0.445,1.025-0.558,2.108-0.391,3.135c-4.542-1.925-9.106-1.786-11.333,0.136l-8.349-3.626  c-4.41-1.917-9.42-0.497-12.239,3.137l6.208,2.697L34.029,29.146z"/><path fill="#000000" d="M22.667,44.02l6.113-6.563l-1.216-1.133l-4.148,4.452l2.278-5.012l-1.515-0.688l-1.956,4.308l0.024-5.665  l-1.662-0.007l-0.036,8.021l-4.029-6.547l-1.416,0.873l4.762,7.736c-2.376,0.306-4.362,1.858-5.266,3.986h12.247  C26.085,45.984,24.554,44.595,22.667,44.02z"/><path fill="#000000" d="M47.392,47.573c-0.683-3.729-3.752-6.547-7.442-6.547c-3.688,0-6.762,2.817-7.442,6.547H47.392z"/><polygon fill="#000000" points="58.058,47.364 53.967,43.773 50.813,47.364 "/><text x="0" y="115" fill="#000000" font-size="5px" font-weight="bold" font-family="'Helvetica Neue', Helvetica, Arial-Unicode, Arial, Sans-serif">Created by SlideGenius</text><text x="0" y="120" fill="#000000" font-size="5px" font-weight="bold" font-family="'Helvetica Neue', Helvetica, Arial-Unicode, Arial, Sans-serif">from the Noun Project</text></svg>