<svg xmlns="http://www.w3.org/2000/svg" xmlns:xlink="http://www.w3.org/1999/xlink" version="1.1" x="0px" y="0px" viewBox="0 0 51.319 87.69624999999999" enable-background="new 0 0 51.319 70.157" xml:space="preserve"><g><path fill="none" stroke="#000000" stroke-width="2.4137" d="M24.184,41.518"/><path fill="none" stroke="#000000" stroke-width="2.4137" d="M8.136,41.518"/><line fill="none" stroke="#000000" stroke-width="2.4137" x1="12.136" y1="37.518" x2="24.184" y2="37.518"/><line fill="none" stroke="#000000" stroke-width="2.4137" x1="8.136" y1="37.518" x2="10.184" y2="37.518"/><line fill="none" stroke="#000000" stroke-width="2.4137" x1="12.136" y1="41.518" x2="24.184" y2="41.518"/><line fill="none" stroke="#000000" stroke-width="2.4137" x1="8.136" y1="41.518" x2="10.184" y2="41.518"/><path fill="none" stroke="#000000" stroke-width="2.4137" d="M24.184,49.518"/><path fill="none" stroke="#000000" stroke-width="2.4137" d="M8.136,49.518"/><line fill="none" stroke="#000000" stroke-width="2.4137" x1="12.136" y1="45.518" x2="24.184" y2="45.518"/><line fill="none" stroke="#000000" stroke-width="2.4137" x1="8.136" y1="45.518" x2="10.184" y2="45.518"/><line fill="none" stroke="#000000" stroke-width="2.4137" x1="12.136" y1="49.518" x2="24.184" y2="49.518"/><line fill="none" stroke="#000000" stroke-width="2.4137" x1="8.136" y1="49.518" x2="10.184" y2="49.518"/><path fill="none" stroke="#000000" stroke-width="2.4137" d="M24.184,57.518"/><path fill="none" stroke="#000000" stroke-width="2.4137" d="M8.136,57.518"/><line fill="none" stroke="#000000" stroke-width="2.4137" x1="12.136" y1="53.518" x2="24.184" y2="53.518"/><line fill="none" stroke="#000000" stroke-width="2.4137" x1="8.136" y1="53.518" x2="10.184" y2="53.518"/><line fill="none" stroke="#000000" stroke-width="2.4137" x1="12.136" y1="57.518" x2="24.184" y2="57.518"/><line fill="none" stroke="#000000" stroke-width="2.4137" x1="8.136" y1="57.518" x2="10.184" y2="57.518"/><path fill="none" stroke="#000000" stroke-width="2.4137" d="M43.184,41.518"/><line fill="none" stroke="#000000" stroke-width="2.4137" x1="27.136" y1="37.518" x2="43.184" y2="37.518"/><line fill="none" stroke="#000000" stroke-width="2.4137" x1="27.136" y1="41.518" x2="43.184" y2="41.518"/><path fill="none" stroke="#000000" stroke-width="2.4137" d="M43.184,49.518"/><line fill="none" stroke="#000000" stroke-width="2.4137" x1="27.136" y1="45.518" x2="43.184" y2="45.518"/><line fill="none" stroke="#000000" stroke-width="2.4137" x1="27.136" y1="49.518" x2="43.184" y2="49.518"/><path fill="none" stroke="#000000" stroke-width="2.4137" d="M43.184,57.518"/><path fill="none" stroke="#000000" stroke-width="2.4137" d="M27.136,57.518"/><line fill="none" stroke="#000000" stroke-width="2.4137" x1="27.136" y1="53.518" x2="43.184" y2="53.518"/><line fill="none" stroke="#000000" stroke-width="2.4137" x1="27.136" y1="57.518" x2="43.184" y2="57.518"/></g><polyline fill="none" stroke="#000000" stroke-width="2.4137" points="50.112,69.339 50.112,1.207 1.207,1.207 1.207,68.95   50.112,68.95 50.112,65.523 "/><path fill="none" stroke="#000000" stroke-linecap="round" stroke-linejoin="round" d="M33.112,18.256v6.438  c0,3.487-3.826,3.313-7.312,3.313l0,0c-3.486,0-7.312,0.174-7.312-3.313v-6.438"/><line fill="none" stroke="#000000" stroke-width="0.25" stroke-linecap="round" stroke-linejoin="round" x1="29.362" y1="9.6" x2="29.362" y2="14.038"/><line fill="none" stroke="#000000" stroke-width="0.25" stroke-linecap="round" stroke-linejoin="round" x1="30.362" y1="10.6" x2="30.362" y2="13.038"/><line fill="none" stroke="#000000" stroke-width="0.25" stroke-linecap="round" stroke-linejoin="round" x1="27.362" y1="12.6" x2="27.362" y2="15.038"/><line fill="none" stroke="#000000" stroke-width="0.25" stroke-linecap="round" stroke-linejoin="round" x1="28.362" y1="10.6" x2="28.362" y2="15.038"/><line fill="none" stroke="#000000" stroke-linecap="round" stroke-linejoin="round" x1="16.612" y1="19.694" x2="18.487" y2="19.694"/><line fill="none" stroke="#000000" stroke-linecap="round" stroke-linejoin="round" x1="18.487" y1="17.944" x2="30.362" y2="17.944"/><line fill="none" stroke="#000000" stroke-linecap="round" stroke-linejoin="round" x1="33.112" y1="19.694" x2="34.987" y2="19.694"/><text x="0" y="85.157" fill="#000000" font-size="5px" font-weight="bold" font-family="'Helvetica Neue', Helvetica, Arial-Unicode, Arial, Sans-serif">Created by 8ties®</text><text x="0" y="90.157" fill="#000000" font-size="5px" font-weight="bold" font-family="'Helvetica Neue', Helvetica, Arial-Unicode, Arial, Sans-serif">from the Noun Project</text></svg>