<svg xmlns="http://www.w3.org/2000/svg" xmlns:xlink="http://www.w3.org/1999/xlink" version="1.1" x="0px" y="0px" viewBox="0 0 100 125"><path d="M851,175 c92,0,78,234,39,340 c-20,54,97,38,75,235 l-16,145 c-2,15,-11,23,-21,23 c-9,0,-18,-8,-18,-23 l0,-184 c0,-30,-39,-30,-39,0 l0,184 c0,15,-10,23,-20,23 c-10,0,-20,-8,-20,-23 l0,-184 c0,-30,-39,-30,-39,0 l0,184 c0,15,-8,23,-18,23 c-9,0,-19,-8,-21,-23 l-15,-145 c-20,-197,94,-181,74,-235 c-43,-115,-53,-340,39,-340 Z M1137,175 c83,0,62,183,62,289 l1,422 c0,26,-13,39,-32,39 c-47,0,-127,-78,-127,-242 l0,-172 c0,-59,81,-22,81,-53 c-66,-97,-69,-283,15,-283 Z M-150,0 l1500,0 c50,0,50,0,50,50 l0,1000 c0,50,0,50,-50,50 l-700,0 c-135,130,-412,200,-699,200 l0,-200 l-101,0 c-50,0,-50,0,-50,-50 l0,-1000 c0,-50,0,-50,50,-50 Z M550,111 c-111,53,-313,89,-499,97 l0,990 c193,-11,398,-63,499,-138 Z M650,100 l0,900 l650,0 l0,-900 Z M650,100 " fill="#000000" stroke="none" stroke-dasharray="none" stroke-linecap="inherit" stroke-linejoin="inherit" stroke-width="1" transform="matrix(0.05,0.0,0.0,-0.05,20.0,80.0)"/><text x="0" y="115" fill="#000000" font-size="5px" font-weight="bold" font-family="'Helvetica Neue', Helvetica, Arial-Unicode, Arial, Sans-serif">Created by Thomas Helbig</text><text x="0" y="120" fill="#000000" font-size="5px" font-weight="bold" font-family="'Helvetica Neue', Helvetica, Arial-Unicode, Arial, Sans-serif">from the Noun Project</text></svg>