<svg xmlns="http://www.w3.org/2000/svg" xmlns:xlink="http://www.w3.org/1999/xlink" version="1.1" x="0px" y="0px" viewBox="0 0 100 125" enable-background="new 0 0 100 100" xml:space="preserve"><g><path d="M39.724,41.86c-0.524,0-0.965-0.408-0.997-0.939c-0.382-6.231,1.92-12.33,6.315-16.731c4.111-4.102,9.572-6.36,15.378-6.36   c0.553,0,1,0.448,1,1s-0.447,1-1,1c-5.272,0-10.231,2.051-13.964,5.774c-3.99,3.995-6.08,9.534-5.733,15.194   c0.034,0.551-0.386,1.025-0.937,1.059C39.765,41.859,39.744,41.86,39.724,41.86z"/></g><path d="M84.87,15.13c13.51,13.5,13.51,35.39,0,48.89c-6.75,6.75-15.6,10.13-24.45,10.13c-7.65,0-15.29-2.53-21.59-7.58l-3.79,3.79  c0.32,2.01-0.27,4.14-1.82,5.68L16.18,93.08C14.9,94.36,13.23,95,11.55,95s-3.35-0.64-4.63-1.92c-2.56-2.56-2.56-6.7,0-9.26  l17.04-17.04c1.54-1.55,3.67-2.14,5.68-1.82l3.79-3.79c-10.89-13.58-10.04-33.45,2.55-46.04C42.73,8.38,51.58,5,60.42,5  C69.27,5,78.12,8.38,84.87,15.13z M77.93,57.08c9.64-9.65,9.64-25.36,0-35.01c-4.68-4.67-10.89-7.24-17.51-7.24  c-6.61,0-12.82,2.57-17.5,7.24c-9.64,9.65-9.64,25.36,0,35.01c4.68,4.67,10.89,7.24,17.5,7.24C67.04,64.32,73.25,61.75,77.93,57.08z  "/><text x="0" y="115" fill="#000000" font-size="5px" font-weight="bold" font-family="'Helvetica Neue', Helvetica, Arial-Unicode, Arial, Sans-serif">Created by Maxim Kulikov</text><text x="0" y="120" fill="#000000" font-size="5px" font-weight="bold" font-family="'Helvetica Neue', Helvetica, Arial-Unicode, Arial, Sans-serif">from the Noun Project</text></svg>