<svg xmlns="http://www.w3.org/2000/svg" xmlns:xlink="http://www.w3.org/1999/xlink" version="1.1" x="0px" y="0px" viewBox="0 0 100 125" enable-background="new 0 0 100 100" xml:space="preserve"><path fill="#000000" d="M83.75,45.312h-0.002h-0.002h-2.809V42.5c0-6.834-8.648-12.188-19.688-12.188h-2.908  c-0.436-2.137-2.327-3.75-4.592-3.75h-7.5c-2.265,0-4.156,1.613-4.592,3.75H38.75c-11.039,0-19.688,5.354-19.688,12.188v2.812H16.25  c-1.551,0-2.812,1.262-2.812,2.812s1.262,2.812,2.812,2.812h2.812v15.938c0,0.008,0.004,0.011,0.004,0.019  c0.002,1.747,0.683,3.388,1.917,4.623c1.239,1.237,2.888,1.921,4.642,1.921h48.75c3.618,0,6.562-2.944,6.562-6.562V50.938h2.809  h0.002h0.002c1.551,0,2.812-1.262,2.812-2.812S85.301,45.312,83.75,45.312z M77.188,48.125c0-1.551-1.262-2.812-2.812-2.812  s-2.812,1.262-2.812,2.812s-1.262,2.812-2.812,2.812s-2.812-1.262-2.812-2.812v-4.688h13.125v2.794c0,0.008-0.004,0.011-0.004,0.019  s0.004,0.011,0.004,0.019v3.713c0,0.008-0.004,0.011-0.004,0.019s0.004,0.011,0.004,0.019v9.356  c-1.157-0.871-1.875-2.248-1.875-3.75V48.125z M46.25,28.438h7.5c1.222,0,2.252,0.785,2.641,1.875H43.609  C43.998,29.223,45.028,28.438,46.25,28.438z M38.75,32.188h22.5c9.274,0,16.908,4.127,17.73,9.375H21.02  C21.842,36.314,29.476,32.188,38.75,32.188z M16.25,49.062c-0.517,0-0.938-0.421-0.938-0.938s0.421-0.938,0.938-0.938h2.812v1.875  H16.25z M74.375,71.562h-48.75c-1.252,0-2.43-0.487-3.316-1.371c-0.884-0.885-1.369-2.062-1.369-3.316  c0-0.004-0.002-0.006-0.002-0.01V43.438h43.125v4.688c0,2.586,2.102,4.688,4.688,4.688s4.688-2.102,4.688-4.688  c0-0.517,0.421-0.938,0.938-0.938s0.938,0.421,0.938,0.938v7.5c0,2.549,1.486,4.836,3.75,5.912v5.338  C79.062,69.461,76.961,71.562,74.375,71.562z M83.75,49.062h-0.002h-0.002h-2.809v-1.875h2.809h0.002h0.002  c0.517,0,0.938,0.421,0.938,0.938S84.267,49.062,83.75,49.062z"/><path fill="#000000" d="M40.625,55.625c1.034,0,1.875-1.26,1.875-2.812c0-0.887-0.278-1.664-0.703-2.179l-2.984,1.492  c-0.037,0.222-0.062,0.448-0.062,0.687C38.75,54.365,39.589,55.625,40.625,55.625z"/><path fill="#000000" d="M59.375,55.625c1.036,0,1.875-1.26,1.875-2.812c0-0.238-0.025-0.465-0.062-0.687l-2.984-1.492  c-0.425,0.515-0.703,1.292-0.703,2.179C57.5,54.365,58.341,55.625,59.375,55.625z"/><path fill="#000000" d="M61.25,60.312c-1.326,0-2.027,0.701-2.538,1.212c-0.459,0.46-0.685,0.663-1.212,0.663  s-0.753-0.203-1.212-0.663c-0.511-0.511-1.212-1.212-2.538-1.212s-2.027,0.701-2.538,1.212c-0.459,0.46-0.685,0.663-1.212,0.663  s-0.753-0.203-1.212-0.663c-0.511-0.511-1.212-1.212-2.538-1.212s-2.027,0.701-2.538,1.212c-0.459,0.46-0.685,0.663-1.212,0.663  s-0.753-0.203-1.212-0.663c-0.511-0.511-1.212-1.212-2.538-1.212c-0.519,0-0.938,0.42-0.938,0.938s0.419,0.938,0.938,0.938  c0.527,0,0.753,0.203,1.212,0.663c0.511,0.511,1.212,1.212,2.538,1.212s2.027-0.701,2.538-1.212c0.459-0.46,0.685-0.663,1.212-0.663  s0.753,0.203,1.212,0.663c0.511,0.511,1.212,1.212,2.538,1.212s2.027-0.701,2.538-1.212c0.459-0.46,0.685-0.663,1.212-0.663  s0.753,0.203,1.212,0.663c0.511,0.511,1.212,1.212,2.538,1.212s2.027-0.701,2.538-1.212c0.459-0.46,0.685-0.663,1.212-0.663  c0.519,0,0.938-0.42,0.938-0.938S61.769,60.312,61.25,60.312z"/><text x="0" y="115" fill="#000000" font-size="5px" font-weight="bold" font-family="'Helvetica Neue', Helvetica, Arial-Unicode, Arial, Sans-serif">Created by Julien Deveaux</text><text x="0" y="120" fill="#000000" font-size="5px" font-weight="bold" font-family="'Helvetica Neue', Helvetica, Arial-Unicode, Arial, Sans-serif">from the Noun Project</text></svg>