<svg xmlns:dc="http://purl.org/dc/elements/1.1/" xmlns:cc="http://creativecommons.org/ns#" xmlns:rdf="http://www.w3.org/1999/02/22-rdf-syntax-ns#" xmlns:svg="http://www.w3.org/2000/svg" xmlns="http://www.w3.org/2000/svg" xmlns:sodipodi="http://sodipodi.sourceforge.net/DTD/sodipodi-0.dtd" xmlns:inkscape="http://www.inkscape.org/namespaces/inkscape" version="1.1" x="0px" y="0px" viewBox="0 0 100 125"><g transform="translate(0,-952.36218)"><path style="text-indent:0;text-transform:none;direction:ltr;block-progression:tb;baseline-shift:baseline;color:#000000;enable-background:accumulate;" d="m 67.44995,1029.4075 -0.6456,-3.9425 -2.5431,-15.5728 11.1311,-11.09797 2.8366,-2.8189 -3.9321,-0.5914 -15.4936,-2.3852 -7.023,-14.114 -1.7802,-3.5679 -1.7802,3.5679 -7.023,14.114 -15.4936,2.3852 -3.9322,0.5914 2.8366,2.8189 11.1312,11.09797 -2.5432,15.5728 -0.6455,3.9425 3.5408,-1.8333 13.9091,-7.2541 13.9091,7.2541 3.5408,1.8333 z m -5.2233,-7.2345 -11.3071,-5.894 -0.9195,-0.4731 -0.9195,0.4731 -11.3071,5.894 2.0735,-12.6553 0.1761,-1.025 -0.7433,-0.7294 -9.0576,-9.02827 12.5788,-1.9121 1.0173,-0.1577 0.4695,-0.9264 5.7123,-11.4726 5.7123,11.4726 0.4695,0.9264 1.0173,0.1577 12.5788,1.9121 -9.0576,9.02827 -0.7433,0.7294 0.1761,1.025 2.0735,12.6553 z" fill="#000000" fill-opacity="1" stroke="none" marker="none" visibility="visible" display="inline" overflow="visible"/></g><text x="0" y="115" fill="#000000" font-size="5px" font-weight="bold" font-family="'Helvetica Neue', Helvetica, Arial-Unicode, Arial, Sans-serif">Created by Eagle Eye</text><text x="0" y="120" fill="#000000" font-size="5px" font-weight="bold" font-family="'Helvetica Neue', Helvetica, Arial-Unicode, Arial, Sans-serif">from the Noun Project</text></svg>