<svg xmlns="http://www.w3.org/2000/svg" xmlns:xlink="http://www.w3.org/1999/xlink" version="1.1" x="0px" y="0px" viewBox="2.125 73.247 100 105.63000000000001" enable-background="new 2.125 73.247 100 84.504" xml:space="preserve"><path d="M85.297,95.887l-3.874-22.64L2.125,87.17l11.622,66.223l7.87-1.332v5.69h80.508V95.887H85.297z M21.617,145.402  l-2.542,0.484l-9.443-53.39l66.465-11.744l2.664,15.134H21.617V145.402z M95.588,151.213H28.154v-48.789h67.434V151.213z"/><path d="M32.512,106.782v36.198l13.681-9.079l8.474,5.326l20.581-22.639l2.664,1.089l13.317,15.376v-26.271H32.512z M45.587,122.399  c-3.147,0-5.811-2.663-5.811-5.811c0-3.148,2.664-5.812,5.811-5.812c3.148,0,5.811,2.663,5.811,5.812  C51.398,119.736,48.735,122.399,45.587,122.399z"/><text x="2.125" y="172.751" fill="#000000" font-size="5px" font-weight="bold" font-family="'Helvetica Neue', Helvetica, Arial-Unicode, Arial, Sans-serif">Created by John Caserta</text><text x="2.125" y="177.751" fill="#000000" font-size="5px" font-weight="bold" font-family="'Helvetica Neue', Helvetica, Arial-Unicode, Arial, Sans-serif">from the Noun Project</text></svg>